<mxfile host="65bd71144e">
    <diagram name="Page-1" id="9fEYS-tbttWLafqbmb_Y">
        <mxGraphModel dx="2176" dy="3807" grid="0" gridSize="10" guides="1" tooltips="1" connect="1" arrows="1" fold="1" page="1" pageScale="1" pageWidth="850" pageHeight="1100" math="0" shadow="0">
            <root>
                <mxCell id="0"/>
                <mxCell id="1" parent="0"/>
                <mxCell id="i4qcZhZc8-6NtsrafSyv-90" value="" style="rounded=0;whiteSpace=wrap;html=1;" parent="1" vertex="1">
                    <mxGeometry x="-4.5" y="-166" width="258" height="151" as="geometry"/>
                </mxCell>
                <mxCell id="XZYR6mGrOg1nBmABmcud-1" value="&lt;h1 style=&quot;margin-top: 0px;&quot;&gt;Protocol POC Requirements&lt;/h1&gt;" style="text;html=1;whiteSpace=wrap;overflow=hidden;rounded=0;" parent="1" vertex="1">
                    <mxGeometry x="250" y="-3280" width="350" height="40" as="geometry"/>
                </mxCell>
                <mxCell id="XZYR6mGrOg1nBmABmcud-2" value="" style="shape=waypoint;sketch=0;fillStyle=solid;size=6;pointerEvents=1;points=[];fillColor=none;resizable=0;rotatable=0;perimeter=centerPerimeter;snapToPoint=1;" parent="1" vertex="1">
                    <mxGeometry x="60" y="-3220" width="20" height="20" as="geometry"/>
                </mxCell>
                <mxCell id="XZYR6mGrOg1nBmABmcud-3" value="&lt;font style=&quot;font-size: 16px;&quot;&gt;The protocol will accept and securely lock staked tokens (mSOL/jitoSOL) as collateral in the smart contract.&lt;/font&gt;" style="text;html=1;align=center;verticalAlign=middle;whiteSpace=wrap;rounded=0;" parent="1" vertex="1">
                    <mxGeometry x="63" y="-3215" width="690" height="30" as="geometry"/>
                </mxCell>
                <mxCell id="XZYR6mGrOg1nBmABmcud-4" value="" style="shape=waypoint;sketch=0;fillStyle=solid;size=6;pointerEvents=1;points=[];fillColor=none;resizable=0;rotatable=0;perimeter=centerPerimeter;snapToPoint=1;" parent="1" vertex="1">
                    <mxGeometry x="60" y="-3180" width="20" height="20" as="geometry"/>
                </mxCell>
                <mxCell id="XZYR6mGrOg1nBmABmcud-5" value="" style="shape=waypoint;sketch=0;fillStyle=solid;size=6;pointerEvents=1;points=[];fillColor=none;resizable=0;rotatable=0;perimeter=centerPerimeter;snapToPoint=1;" parent="1" vertex="1">
                    <mxGeometry x="60" y="-3080" width="20" height="20" as="geometry"/>
                </mxCell>
                <mxCell id="XZYR6mGrOg1nBmABmcud-6" value="" style="shape=waypoint;sketch=0;fillStyle=solid;size=6;pointerEvents=1;points=[];fillColor=none;resizable=0;rotatable=0;perimeter=centerPerimeter;snapToPoint=1;" parent="1" vertex="1">
                    <mxGeometry x="60" y="-3140" width="20" height="20" as="geometry"/>
                </mxCell>
                <mxCell id="XZYR6mGrOg1nBmABmcud-7" value="" style="shape=waypoint;sketch=0;fillStyle=solid;size=6;pointerEvents=1;points=[];fillColor=none;resizable=0;rotatable=0;perimeter=centerPerimeter;snapToPoint=1;" parent="1" vertex="1">
                    <mxGeometry x="60" y="-3030" width="20" height="20" as="geometry"/>
                </mxCell>
                <mxCell id="XZYR6mGrOg1nBmABmcud-8" value="" style="shape=waypoint;sketch=0;fillStyle=solid;size=6;pointerEvents=1;points=[];fillColor=none;resizable=0;rotatable=0;perimeter=centerPerimeter;snapToPoint=1;" parent="1" vertex="1">
                    <mxGeometry x="57" y="-2870" width="20" height="20" as="geometry"/>
                </mxCell>
                <mxCell id="XZYR6mGrOg1nBmABmcud-9" value="" style="shape=waypoint;sketch=0;fillStyle=solid;size=6;pointerEvents=1;points=[];fillColor=none;resizable=0;rotatable=0;perimeter=centerPerimeter;snapToPoint=1;" parent="1" vertex="1">
                    <mxGeometry x="60" y="-2980" width="20" height="20" as="geometry"/>
                </mxCell>
                <mxCell id="XZYR6mGrOg1nBmABmcud-10" value="" style="shape=waypoint;sketch=0;fillStyle=solid;size=6;pointerEvents=1;points=[];fillColor=none;resizable=0;rotatable=0;perimeter=centerPerimeter;snapToPoint=1;" parent="1" vertex="1">
                    <mxGeometry x="60" y="-2920" width="20" height="20" as="geometry"/>
                </mxCell>
                <mxCell id="XZYR6mGrOg1nBmABmcud-11" value="&lt;font style=&quot;font-size: 16px;&quot;&gt;The protocol will initialize and record user position by creating a loan account tied to the staked collateral.&lt;/font&gt;" style="text;html=1;align=center;verticalAlign=middle;whiteSpace=wrap;rounded=0;" parent="1" vertex="1">
                    <mxGeometry x="65" y="-3176" width="660" height="30" as="geometry"/>
                </mxCell>
                <mxCell id="XZYR6mGrOg1nBmABmcud-15" value="&lt;font style=&quot;font-size: 16px;&quot;&gt;The protocol will calculate available credit using a conservative loan-to-value (LTV) ratio based on current collateral value via oracle feeds.&lt;/font&gt;" style="text;html=1;align=center;verticalAlign=middle;whiteSpace=wrap;rounded=0;" parent="1" vertex="1">
                    <mxGeometry x="77" y="-3134" width="710" height="30" as="geometry"/>
                </mxCell>
                <mxCell id="XZYR6mGrOg1nBmABmcud-16" value="&lt;font style=&quot;font-size: 16px;&quot;&gt;The protocol will mint and issue a credit SPL token (synthetic stablecoin) to the borrowerâ€™s wallet after successful collateralization&lt;/font&gt;" style="text;html=1;align=center;verticalAlign=middle;whiteSpace=wrap;rounded=0;" parent="1" vertex="1">
                    <mxGeometry x="67" y="-3075" width="750" height="30" as="geometry"/>
                </mxCell>
                <mxCell id="XZYR6mGrOg1nBmABmcud-17" value="&lt;font style=&quot;font-size: 16px;&quot;&gt;The protocol will track and periodically apply staking yield generated on locked collateral toward automatic loan repayment&lt;/font&gt;" style="text;html=1;align=center;verticalAlign=middle;whiteSpace=wrap;rounded=0;" parent="1" vertex="1">
                    <mxGeometry x="58" y="-3026" width="720" height="30" as="geometry"/>
                </mxCell>
                <mxCell id="XZYR6mGrOg1nBmABmcud-18" value="&lt;font style=&quot;font-size: 16px;&quot;&gt;The protocol will restrict collateral withdrawal or unstaking until the outstanding loan is fully repaid and the loan is closed&lt;/font&gt;" style="text;html=1;align=center;verticalAlign=middle;whiteSpace=wrap;rounded=0;" parent="1" vertex="1">
                    <mxGeometry x="75" y="-2976" width="730" height="30" as="geometry"/>
                </mxCell>
                <mxCell id="XZYR6mGrOg1nBmABmcud-20" value="&lt;font style=&quot;font-size: 16px;&quot;&gt;The protocol will maintain and update simple on-chain credit indicators and borrowing status for each user&lt;/font&gt;" style="text;html=1;align=center;verticalAlign=middle;whiteSpace=wrap;rounded=0;" parent="1" vertex="1">
                    <mxGeometry x="81" y="-2913" width="719" height="30" as="geometry"/>
                </mxCell>
                <mxCell id="XZYR6mGrOg1nBmABmcud-22" value="&lt;font style=&quot;font-size: 16px;&quot;&gt;The protocol will enable merchant payments by allowing direct transfer of the credit token to merchant wallets with order/reference validation via Solana Pay&lt;/font&gt;" style="text;html=1;align=center;verticalAlign=middle;whiteSpace=wrap;rounded=0;" parent="1" vertex="1">
                    <mxGeometry x="65" y="-2867" width="690" height="30" as="geometry"/>
                </mxCell>
                <mxCell id="XZYR6mGrOg1nBmABmcud-24" value="&lt;h1 style=&quot;margin-top: 0px;&quot;&gt;Overview&lt;/h1&gt;" style="text;html=1;whiteSpace=wrap;overflow=hidden;rounded=0;" parent="1" vertex="1">
                    <mxGeometry x="335" y="-2780" width="120" height="40" as="geometry"/>
                </mxCell>
                <mxCell id="i4qcZhZc8-6NtsrafSyv-2" value="&lt;p dir=&quot;ltr&quot; style=&quot;line-height:1.38;margin-top:0pt;margin-bottom:0pt;&quot;&gt;&lt;span style=&quot;font-family: &amp;quot;Google Sans Text&amp;quot;; color: rgb(0, 0, 0); background-color: transparent; font-weight: 400; font-style: normal; font-variant: normal; text-decoration: none; vertical-align: baseline; white-space: pre-wrap;&quot;&gt;&lt;font style=&quot;font-size: 14px;&quot;&gt;1. &lt;/font&gt;&lt;font style=&quot;font-size: 16px;&quot;&gt;User will deposit&amp;nbsp; staked SOL like mSOL/jitoSOL&amp;nbsp;&lt;/font&gt;&lt;/span&gt;&lt;/p&gt;&lt;p dir=&quot;ltr&quot; style=&quot;line-height:1.38;margin-top:0pt;margin-bottom:0pt;&quot;&gt;&lt;span style=&quot;font-family: &amp;quot;Google Sans Text&amp;quot;; color: rgb(0, 0, 0); background-color: transparent; font-weight: 400; font-style: normal; font-variant: normal; text-decoration: none; vertical-align: baseline; white-space: pre-wrap;&quot;&gt;&lt;font style=&quot;font-size: 16px;&quot;&gt;&lt;br&gt;&lt;/font&gt;&lt;/span&gt;&lt;/p&gt;&lt;p dir=&quot;ltr&quot; style=&quot;line-height:1.38;margin-top:0pt;margin-bottom:0pt;&quot;&gt;&lt;span style=&quot;font-family: &amp;quot;Google Sans Text&amp;quot;; color: rgb(0, 0, 0); background-color: transparent; font-weight: 400; font-style: normal; font-variant: normal; text-decoration: none; vertical-align: baseline; white-space: pre-wrap;&quot;&gt;&lt;font size=&quot;3&quot;&gt;2. User will initialize program and our program will lock their staked sol&lt;/font&gt;&lt;/span&gt;&lt;/p&gt;&lt;p dir=&quot;ltr&quot; style=&quot;line-height:1.38;margin-top:0pt;margin-bottom:0pt;&quot;&gt;&lt;span style=&quot;font-family: &amp;quot;Google Sans Text&amp;quot;; color: rgb(0, 0, 0); background-color: transparent; font-weight: 400; font-style: normal; font-variant: normal; text-decoration: none; vertical-align: baseline; white-space: pre-wrap;&quot;&gt;&lt;font size=&quot;3&quot;&gt;&lt;br&gt;&lt;/font&gt;&lt;/span&gt;&lt;/p&gt;&lt;p dir=&quot;ltr&quot; style=&quot;line-height:1.38;margin-top:0pt;margin-bottom:0pt;&quot;&gt;&lt;span style=&quot;font-family: &amp;quot;Google Sans Text&amp;quot;; color: rgb(0, 0, 0); background-color: transparent; font-weight: 400; font-style: normal; font-variant: normal; text-decoration: none; vertical-align: baseline; white-space: pre-wrap;&quot;&gt;&lt;font size=&quot;3&quot;&gt;3. Program will calculate credit limit based on collateral price&amp;nbsp; (with oracel service ) and LTV ratio (e.g. 60%)&amp;nbsp;&amp;nbsp;&lt;/font&gt;&lt;/span&gt;&lt;/p&gt;&lt;p dir=&quot;ltr&quot; style=&quot;line-height:1.38;margin-top:0pt;margin-bottom:0pt;&quot;&gt;&lt;span style=&quot;font-family: &amp;quot;Google Sans Text&amp;quot;; color: rgb(0, 0, 0); background-color: transparent; font-weight: 400; font-style: normal; font-variant: normal; text-decoration: none; vertical-align: baseline; white-space: pre-wrap;&quot;&gt;&lt;font size=&quot;3&quot;&gt;&lt;br&gt;&lt;/font&gt;&lt;/span&gt;&lt;/p&gt;&lt;p dir=&quot;ltr&quot; style=&quot;line-height:1.38;margin-top:0pt;margin-bottom:0pt;&quot;&gt;&lt;span style=&quot;font-family: &amp;quot;Google Sans Text&amp;quot;; color: rgb(0, 0, 0); background-color: transparent; font-weight: 400; font-style: normal; font-variant: normal; text-decoration: none; vertical-align: baseline; white-space: pre-wrap;&quot;&gt;&lt;font size=&quot;3&quot;&gt;4. Program will mint credit token to user&lt;/font&gt;&lt;/span&gt;&lt;/p&gt;&lt;p dir=&quot;ltr&quot; style=&quot;line-height:1.38;margin-top:0pt;margin-bottom:0pt;&quot;&gt;&lt;span style=&quot;font-family: &amp;quot;Google Sans Text&amp;quot;; color: rgb(0, 0, 0); background-color: transparent; font-weight: 400; font-style: normal; font-variant: normal; text-decoration: none; vertical-align: baseline; white-space: pre-wrap;&quot;&gt;&lt;font size=&quot;3&quot;&gt;&lt;br&gt;&lt;/font&gt;&lt;/span&gt;&lt;/p&gt;&lt;p dir=&quot;ltr&quot; style=&quot;line-height:1.38;margin-top:0pt;margin-bottom:0pt;&quot;&gt;&lt;font size=&quot;3&quot;&gt;&lt;span style=&quot;font-family: &amp;quot;Google Sans Text&amp;quot;; color: rgb(0, 0, 0); background-color: transparent; font-weight: 400; font-style: normal; font-variant: normal; text-decoration: none; vertical-align: baseline; white-space: pre-wrap;&quot;&gt;5. Daily or Weekly Program will reduce a user&#39;s loan using staking rewards (&lt;/span&gt;&lt;span style=&quot;font-family: &amp;quot;Google Sans Text&amp;quot;; color: rgb(0, 0, 0); background-color: transparent; font-weight: 700; font-style: normal; font-variant: normal; text-decoration: none; vertical-align: baseline; white-space: pre-wrap;&quot;&gt;s&lt;/span&gt;&lt;span style=&quot;font-family: &amp;quot;Google Sans Text&amp;quot;; color: rgb(0, 0, 0); background-color: transparent; font-weight: 400; font-style: normal; font-variant: normal; text-decoration: none; vertical-align: baseline; white-space: pre-wrap;&quot;&gt;cheduled cron job will trigger this)&lt;/span&gt;&lt;/font&gt;&lt;/p&gt;&lt;p dir=&quot;ltr&quot; style=&quot;line-height:1.38;margin-top:0pt;margin-bottom:0pt;&quot;&gt;&lt;font size=&quot;3&quot;&gt;&lt;span style=&quot;font-family: &amp;quot;Google Sans Text&amp;quot;; color: rgb(0, 0, 0); background-color: transparent; font-weight: 400; font-style: normal; font-variant: normal; text-decoration: none; vertical-align: baseline; white-space: pre-wrap;&quot;&gt;&lt;br&gt;&lt;/span&gt;&lt;/font&gt;&lt;/p&gt;&lt;p dir=&quot;ltr&quot; style=&quot;line-height:1.38;margin-top:0pt;margin-bottom:0pt;&quot;&gt;&lt;span style=&quot;font-family: &amp;quot;Google Sans Text&amp;quot;; color: rgb(0, 0, 0); background-color: transparent; font-weight: 400; font-style: normal; font-variant: normal; text-decoration: none; vertical-align: baseline; white-space: pre-wrap;&quot;&gt;&lt;font size=&quot;3&quot;&gt;6. User will only be able to withdraw if principal amount is zero. If zero and loan is closed then unlock and return staked collateral to user&lt;/font&gt;&lt;/span&gt;&lt;/p&gt;&lt;p dir=&quot;ltr&quot; style=&quot;line-height:1.38;margin-top:0pt;margin-bottom:0pt;&quot;&gt;&lt;span style=&quot;font-family: &amp;quot;Google Sans Text&amp;quot;; color: rgb(0, 0, 0); background-color: transparent; font-weight: 400; font-style: normal; font-variant: normal; text-decoration: none; vertical-align: baseline; white-space: pre-wrap;&quot;&gt;&lt;font size=&quot;3&quot;&gt;&lt;br&gt;&lt;/font&gt;&lt;/span&gt;&lt;/p&gt;&lt;p dir=&quot;ltr&quot; style=&quot;line-height:1.38;margin-top:0pt;margin-bottom:0pt;&quot;&gt;&lt;span style=&quot;font-family: &amp;quot;Google Sans Text&amp;quot;; color: rgb(0, 0, 0); background-color: transparent; font-weight: 400; font-style: normal; font-variant: normal; text-decoration: none; vertical-align: baseline; white-space: pre-wrap;&quot;&gt;&lt;font size=&quot;3&quot;&gt;7. Program will keep track of a user&#39;s borrowing and repayment behavior&lt;/font&gt;&lt;/span&gt;&lt;/p&gt;&lt;p dir=&quot;ltr&quot; style=&quot;line-height:1.38;margin-top:0pt;margin-bottom:0pt;&quot;&gt;&lt;span style=&quot;font-family: &amp;quot;Google Sans Text&amp;quot;; color: rgb(0, 0, 0); background-color: transparent; font-weight: 400; font-style: normal; font-variant: normal; text-decoration: none; vertical-align: baseline; white-space: pre-wrap;&quot;&gt;&lt;font size=&quot;3&quot;&gt;&lt;br&gt;&lt;/font&gt;&lt;/span&gt;&lt;/p&gt;&lt;p dir=&quot;ltr&quot; style=&quot;line-height:1.38;margin-top:0pt;margin-bottom:0pt;&quot;&gt;&lt;span style=&quot;font-family: &amp;quot;Google Sans Text&amp;quot;; color: rgb(0, 0, 0); background-color: transparent; font-weight: 400; font-style: normal; font-variant: normal; text-decoration: none; vertical-align: baseline; white-space: pre-wrap;&quot;&gt;&lt;font size=&quot;3&quot;&gt;8. Users can make purchases or payments using credit tokens via Solana Pay&lt;/font&gt;&lt;/span&gt;&lt;/p&gt;" style="text;whiteSpace=wrap;html=1;" parent="1" vertex="1">
                    <mxGeometry x="77" y="-2683" width="558" height="424" as="geometry"/>
                </mxCell>
                <mxCell id="i4qcZhZc8-6NtsrafSyv-25" style="edgeStyle=orthogonalEdgeStyle;rounded=0;orthogonalLoop=1;jettySize=auto;html=1;" parent="1" edge="1">
                    <mxGeometry relative="1" as="geometry">
                        <mxPoint x="374" y="-1795" as="targetPoint"/>
                        <mxPoint x="374" y="-2047" as="sourcePoint"/>
                    </mxGeometry>
                </mxCell>
                <mxCell id="i4qcZhZc8-6NtsrafSyv-98" value="" style="edgeStyle=orthogonalEdgeStyle;rounded=0;orthogonalLoop=1;jettySize=auto;html=1;" parent="1" target="i4qcZhZc8-6NtsrafSyv-31" edge="1">
                    <mxGeometry relative="1" as="geometry">
                        <mxPoint x="375" y="-2045" as="sourcePoint"/>
                    </mxGeometry>
                </mxCell>
                <mxCell id="i4qcZhZc8-6NtsrafSyv-3" value="&lt;font style=&quot;font-size: 18px;&quot;&gt;User&lt;/font&gt;" style="shape=umlActor;verticalLabelPosition=bottom;verticalAlign=top;html=1;outlineConnect=0;" parent="1" vertex="1">
                    <mxGeometry x="339" y="-2174" width="70" height="101" as="geometry"/>
                </mxCell>
                <mxCell id="i4qcZhZc8-6NtsrafSyv-35" style="edgeStyle=orthogonalEdgeStyle;rounded=0;orthogonalLoop=1;jettySize=auto;html=1;" parent="1" source="i4qcZhZc8-6NtsrafSyv-5" edge="1">
                    <mxGeometry relative="1" as="geometry">
                        <mxPoint x="89" y="-1507" as="targetPoint"/>
                    </mxGeometry>
                </mxCell>
                <mxCell id="i4qcZhZc8-6NtsrafSyv-5" value="&lt;br&gt;&lt;div&gt;&lt;font style=&quot;font-size: 18px;&quot;&gt;&lt;br&gt;&lt;/font&gt;&lt;/div&gt;&lt;div&gt;&lt;br&gt;&lt;/div&gt;" style="rounded=1;whiteSpace=wrap;html=1;direction=north;" parent="1" vertex="1">
                    <mxGeometry x="251" y="-1777" width="244" height="182" as="geometry"/>
                </mxCell>
                <mxCell id="i4qcZhZc8-6NtsrafSyv-65" style="edgeStyle=orthogonalEdgeStyle;rounded=0;orthogonalLoop=1;jettySize=auto;html=1;exitX=0.368;exitY=1.015;exitDx=0;exitDy=0;exitPerimeter=0;" parent="1" source="i4qcZhZc8-6NtsrafSyv-5" edge="1">
                    <mxGeometry relative="1" as="geometry">
                        <mxPoint x="748" y="-1537" as="targetPoint"/>
                    </mxGeometry>
                </mxCell>
                <mxCell id="i4qcZhZc8-6NtsrafSyv-17" value="&lt;ul&gt;&lt;li&gt;&lt;font style=&quot;font-size: 16px;&quot;&gt;Lock staked token&lt;/font&gt;&lt;/li&gt;&lt;li&gt;&lt;font size=&quot;3&quot;&gt;Track yield&lt;/font&gt;&lt;/li&gt;&lt;li&gt;&lt;font size=&quot;3&quot;&gt;Restrict Withdrawls&lt;/font&gt;&lt;/li&gt;&lt;/ul&gt;" style="text;strokeColor=none;fillColor=none;html=1;whiteSpace=wrap;verticalAlign=middle;overflow=hidden;" parent="1" vertex="1">
                    <mxGeometry x="275" y="-1711" width="183" height="90" as="geometry"/>
                </mxCell>
                <mxCell id="i4qcZhZc8-6NtsrafSyv-20" value="&lt;span style=&quot;font-size: 18px;&quot;&gt;Collateral Manager Program&lt;/span&gt;" style="text;html=1;align=center;verticalAlign=middle;whiteSpace=wrap;rounded=0;" parent="1" vertex="1">
                    <mxGeometry x="260" y="-1761" width="235" height="30" as="geometry"/>
                </mxCell>
                <mxCell id="i4qcZhZc8-6NtsrafSyv-27" value="" style="rounded=0;whiteSpace=wrap;html=1;" parent="1" vertex="1">
                    <mxGeometry x="26" y="-1537" width="253" height="131" as="geometry"/>
                </mxCell>
                <mxCell id="i4qcZhZc8-6NtsrafSyv-28" value="&lt;font style=&quot;font-size: 18px;&quot;&gt;Collateral Vault PDA&lt;/font&gt;" style="text;html=1;align=center;verticalAlign=middle;whiteSpace=wrap;rounded=0;" parent="1" vertex="1">
                    <mxGeometry x="60" y="-1529" width="178" height="30" as="geometry"/>
                </mxCell>
                <mxCell id="i4qcZhZc8-6NtsrafSyv-30" value="&lt;ul&gt;&lt;li&gt;&lt;font style=&quot;font-size: 16px;&quot;&gt;hold locked mSOL/ jitoSOL&lt;/font&gt;&lt;/li&gt;&lt;li&gt;&lt;font size=&quot;3&quot;&gt;hold staking rewards&lt;/font&gt;&lt;/li&gt;&lt;li&gt;&lt;font size=&quot;3&quot;&gt;withdrawal restrictions&lt;/font&gt;&lt;/li&gt;&lt;/ul&gt;" style="text;strokeColor=none;fillColor=none;html=1;whiteSpace=wrap;verticalAlign=middle;overflow=hidden;" parent="1" vertex="1">
                    <mxGeometry x="30.5" y="-1496" width="237" height="87" as="geometry"/>
                </mxCell>
                <mxCell id="i4qcZhZc8-6NtsrafSyv-31" value="&lt;font style=&quot;font-size: 14px;&quot;&gt;deposit mSOL or jitoSOL to the protocol&lt;/font&gt;" style="rounded=1;whiteSpace=wrap;html=1;" parent="1" vertex="1">
                    <mxGeometry x="314.5" y="-1954" width="120" height="60" as="geometry"/>
                </mxCell>
                <mxCell id="i4qcZhZc8-6NtsrafSyv-54" style="edgeStyle=orthogonalEdgeStyle;rounded=0;orthogonalLoop=1;jettySize=auto;html=1;" parent="1" source="i4qcZhZc8-6NtsrafSyv-32" target="i4qcZhZc8-6NtsrafSyv-55" edge="1">
                    <mxGeometry relative="1" as="geometry">
                        <mxPoint x="49" y="-995" as="targetPoint"/>
                    </mxGeometry>
                </mxCell>
                <mxCell id="i4qcZhZc8-6NtsrafSyv-68" style="edgeStyle=orthogonalEdgeStyle;rounded=0;orthogonalLoop=1;jettySize=auto;html=1;" parent="1" source="i4qcZhZc8-6NtsrafSyv-32" edge="1">
                    <mxGeometry relative="1" as="geometry">
                        <mxPoint x="694" y="-889" as="targetPoint"/>
                    </mxGeometry>
                </mxCell>
                <mxCell id="i4qcZhZc8-6NtsrafSyv-72" style="edgeStyle=orthogonalEdgeStyle;rounded=0;orthogonalLoop=1;jettySize=auto;html=1;" parent="1" source="i4qcZhZc8-6NtsrafSyv-32" edge="1">
                    <mxGeometry relative="1" as="geometry">
                        <mxPoint x="408" y="-529" as="targetPoint"/>
                    </mxGeometry>
                </mxCell>
                <mxCell id="i4qcZhZc8-6NtsrafSyv-32" value="" style="rounded=1;whiteSpace=wrap;html=1;" parent="1" vertex="1">
                    <mxGeometry x="232" y="-1282" width="352" height="207" as="geometry"/>
                </mxCell>
                <mxCell id="i4qcZhZc8-6NtsrafSyv-34" value="&lt;font style=&quot;font-size: 18px;&quot;&gt;Lending Program&lt;/font&gt;" style="text;html=1;align=center;verticalAlign=middle;whiteSpace=wrap;rounded=0;" parent="1" vertex="1">
                    <mxGeometry x="296" y="-1264" width="185" height="30" as="geometry"/>
                </mxCell>
                <mxCell id="i4qcZhZc8-6NtsrafSyv-193" style="edgeStyle=orthogonalEdgeStyle;rounded=0;orthogonalLoop=1;jettySize=auto;html=1;" parent="1" edge="1">
                    <mxGeometry relative="1" as="geometry">
                        <mxPoint x="415" y="-1289" as="targetPoint"/>
                        <mxPoint x="709" y="-1513" as="sourcePoint"/>
                    </mxGeometry>
                </mxCell>
                <mxCell id="i4qcZhZc8-6NtsrafSyv-45" value="&lt;font size=&quot;3&quot;&gt;CPI&lt;/font&gt;" style="rounded=1;whiteSpace=wrap;html=1;" parent="1" vertex="1">
                    <mxGeometry x="707" y="-1531" width="75" height="34" as="geometry"/>
                </mxCell>
                <mxCell id="i4qcZhZc8-6NtsrafSyv-46" value="&lt;div&gt;&lt;br&gt;&lt;/div&gt;&lt;ul&gt;&lt;li&gt;&lt;span style=&quot;font-size: 16px;&quot;&gt;get collateral&amp;nbsp;price from oracle&lt;/span&gt;&lt;/li&gt;&lt;li&gt;&lt;span style=&quot;font-size: 16px;&quot;&gt;give credit based on oracle price and LTV(loan-to-value) ratio&amp;nbsp;&lt;/span&gt;&lt;/li&gt;&lt;li&gt;&lt;font style=&quot;font-size: 16px;&quot;&gt;create loan position&lt;/font&gt;&lt;/li&gt;&lt;/ul&gt;" style="text;strokeColor=none;fillColor=none;html=1;whiteSpace=wrap;verticalAlign=middle;overflow=hidden;" parent="1" vertex="1">
                    <mxGeometry x="232" y="-1251" width="347" height="159" as="geometry"/>
                </mxCell>
                <mxCell id="i4qcZhZc8-6NtsrafSyv-48" value="" style="rounded=0;whiteSpace=wrap;html=1;" parent="1" vertex="1">
                    <mxGeometry x="556" y="-875" width="276" height="184" as="geometry"/>
                </mxCell>
                <mxCell id="i4qcZhZc8-6NtsrafSyv-49" value="&lt;font size=&quot;3&quot;&gt;Loan Account&amp;nbsp; PDA&lt;/font&gt;" style="text;html=1;align=center;verticalAlign=middle;whiteSpace=wrap;rounded=0;" parent="1" vertex="1">
                    <mxGeometry x="581" y="-860" width="224" height="30" as="geometry"/>
                </mxCell>
                <mxCell id="i4qcZhZc8-6NtsrafSyv-50" value="&lt;ul&gt;&lt;li&gt;&lt;font style=&quot;font-size: 16px;&quot;&gt;collateral amount&lt;/font&gt;&lt;/li&gt;&lt;li&gt;&lt;font style=&quot;font-size: 16px;&quot;&gt;outstanding debt&lt;/font&gt;&lt;/li&gt;&lt;li&gt;&lt;span style=&quot;font-size: 16px;&quot;&gt;yield tracking info like&amp;nbsp;&amp;nbsp;&lt;/span&gt;&lt;font style=&quot;font-size: 16px;&quot;&gt;yield repaid amount and&amp;nbsp; last harvest time&lt;/font&gt;&lt;/li&gt;&lt;/ul&gt;" style="text;strokeColor=none;fillColor=none;html=1;whiteSpace=wrap;verticalAlign=middle;overflow=hidden;" parent="1" vertex="1">
                    <mxGeometry x="563" y="-835" width="259" height="130" as="geometry"/>
                </mxCell>
                <mxCell id="i4qcZhZc8-6NtsrafSyv-61" style="edgeStyle=orthogonalEdgeStyle;rounded=0;orthogonalLoop=1;jettySize=auto;html=1;" parent="1" source="i4qcZhZc8-6NtsrafSyv-62" edge="1">
                    <mxGeometry relative="1" as="geometry">
                        <mxPoint x="276" y="-1066" as="targetPoint"/>
                    </mxGeometry>
                </mxCell>
                <mxCell id="i4qcZhZc8-6NtsrafSyv-53" value="&lt;span style=&quot;font-size: 18px;&quot;&gt;Oracle&amp;nbsp;&lt;/span&gt;" style="shape=hexagon;perimeter=hexagonPerimeter2;whiteSpace=wrap;html=1;fixedSize=1;" parent="1" vertex="1">
                    <mxGeometry x="2" y="-778" width="167.5" height="80" as="geometry"/>
                </mxCell>
                <mxCell id="i4qcZhZc8-6NtsrafSyv-57" style="edgeStyle=orthogonalEdgeStyle;rounded=0;orthogonalLoop=1;jettySize=auto;html=1;" parent="1" source="i4qcZhZc8-6NtsrafSyv-55" target="i4qcZhZc8-6NtsrafSyv-53" edge="1">
                    <mxGeometry relative="1" as="geometry"/>
                </mxCell>
                <mxCell id="i4qcZhZc8-6NtsrafSyv-55" value="&lt;font size=&quot;3&quot;&gt;CPI&lt;/font&gt;" style="rounded=1;whiteSpace=wrap;html=1;" parent="1" vertex="1">
                    <mxGeometry x="6" y="-1015.5" width="71" height="36.5" as="geometry"/>
                </mxCell>
                <mxCell id="i4qcZhZc8-6NtsrafSyv-56" style="edgeStyle=orthogonalEdgeStyle;rounded=0;orthogonalLoop=1;jettySize=auto;html=1;exitX=0.5;exitY=1;exitDx=0;exitDy=0;" parent="1" source="i4qcZhZc8-6NtsrafSyv-55" target="i4qcZhZc8-6NtsrafSyv-55" edge="1">
                    <mxGeometry relative="1" as="geometry"/>
                </mxCell>
                <mxCell id="i4qcZhZc8-6NtsrafSyv-67" value="" style="edgeStyle=orthogonalEdgeStyle;rounded=0;orthogonalLoop=1;jettySize=auto;html=1;" parent="1" source="i4qcZhZc8-6NtsrafSyv-53" target="i4qcZhZc8-6NtsrafSyv-62" edge="1">
                    <mxGeometry relative="1" as="geometry">
                        <mxPoint x="269" y="-1177" as="targetPoint"/>
                        <mxPoint x="164" y="-747" as="sourcePoint"/>
                    </mxGeometry>
                </mxCell>
                <mxCell id="i4qcZhZc8-6NtsrafSyv-62" value="&lt;font style=&quot;font-size: 14px;&quot;&gt;get the real-time market price of the collateral token&lt;/font&gt;" style="rounded=1;whiteSpace=wrap;html=1;" parent="1" vertex="1">
                    <mxGeometry x="190" y="-950" width="171" height="78.25" as="geometry"/>
                </mxCell>
                <mxCell id="i4qcZhZc8-6NtsrafSyv-84" style="edgeStyle=orthogonalEdgeStyle;rounded=0;orthogonalLoop=1;jettySize=auto;html=1;entryX=0.464;entryY=0.014;entryDx=0;entryDy=0;entryPerimeter=0;exitX=1.003;exitY=0.826;exitDx=0;exitDy=0;exitPerimeter=0;" parent="1" source="i4qcZhZc8-6NtsrafSyv-70" target="i4qcZhZc8-6NtsrafSyv-80" edge="1">
                    <mxGeometry relative="1" as="geometry">
                        <mxPoint x="82" y="-200" as="targetPoint"/>
                    </mxGeometry>
                </mxCell>
                <mxCell id="i4qcZhZc8-6NtsrafSyv-70" value="" style="rounded=1;whiteSpace=wrap;html=1;" parent="1" vertex="1">
                    <mxGeometry x="238" y="-518" width="371" height="253" as="geometry"/>
                </mxCell>
                <mxCell id="i4qcZhZc8-6NtsrafSyv-71" value="&lt;font style=&quot;font-size: 18px;&quot;&gt;Credit Token Program&lt;/font&gt;" style="text;html=1;align=center;verticalAlign=middle;whiteSpace=wrap;rounded=0;" parent="1" vertex="1">
                    <mxGeometry x="294.5" y="-490" width="231" height="30" as="geometry"/>
                </mxCell>
                <mxCell id="i4qcZhZc8-6NtsrafSyv-75" value="&lt;font style=&quot;font-size: 16px;&quot;&gt;CPI&lt;/font&gt;" style="rounded=1;whiteSpace=wrap;html=1;" parent="1" vertex="1">
                    <mxGeometry x="366.5" y="-708" width="83" height="47" as="geometry"/>
                </mxCell>
                <mxCell id="i4qcZhZc8-6NtsrafSyv-76" style="edgeStyle=orthogonalEdgeStyle;rounded=0;orthogonalLoop=1;jettySize=auto;html=1;exitX=0.5;exitY=1;exitDx=0;exitDy=0;" parent="1" source="i4qcZhZc8-6NtsrafSyv-75" target="i4qcZhZc8-6NtsrafSyv-75" edge="1">
                    <mxGeometry relative="1" as="geometry"/>
                </mxCell>
                <mxCell id="i4qcZhZc8-6NtsrafSyv-77" value="&lt;ul&gt;&lt;li&gt;&lt;font style=&quot;font-size: 16px;&quot;&gt;mint credit token to user credit account&lt;/font&gt;&lt;/li&gt;&lt;li&gt;&lt;font size=&quot;3&quot;&gt;burn on repayment&lt;/font&gt;&lt;/li&gt;&lt;/ul&gt;" style="text;strokeColor=none;fillColor=none;html=1;whiteSpace=wrap;verticalAlign=middle;overflow=hidden;" parent="1" vertex="1">
                    <mxGeometry x="282.5" y="-419" width="282" height="80" as="geometry"/>
                </mxCell>
                <mxCell id="i4qcZhZc8-6NtsrafSyv-80" value="" style="shape=ext;double=1;whiteSpace=wrap;html=1;aspect=fixed;" parent="1" vertex="1">
                    <mxGeometry x="600" y="-206" width="208" height="208" as="geometry"/>
                </mxCell>
                <mxCell id="i4qcZhZc8-6NtsrafSyv-81" value="&lt;font style=&quot;font-size: 16px;&quot;&gt;Credit Token Mint PDA&lt;/font&gt;" style="text;html=1;align=center;verticalAlign=middle;whiteSpace=wrap;rounded=0;" parent="1" vertex="1">
                    <mxGeometry x="39" y="-160" width="178" height="30" as="geometry"/>
                </mxCell>
                <mxCell id="i4qcZhZc8-6NtsrafSyv-83" value="&lt;ul&gt;&lt;li&gt;&lt;span style=&quot;font-size: 16px;&quot;&gt;total supply&lt;/span&gt;&lt;/li&gt;&lt;li&gt;&lt;span style=&quot;font-size: 16px;&quot;&gt;mint authority&lt;/span&gt;&lt;/li&gt;&lt;li&gt;&lt;span style=&quot;font-size: 16px;&quot;&gt;burn authority&lt;/span&gt;&lt;/li&gt;&lt;/ul&gt;" style="text;strokeColor=none;fillColor=none;html=1;whiteSpace=wrap;verticalAlign=middle;overflow=hidden;" parent="1" vertex="1">
                    <mxGeometry x="26" y="-130" width="186" height="95.25" as="geometry"/>
                </mxCell>
                <mxCell id="i4qcZhZc8-6NtsrafSyv-86" value="" style="edgeStyle=orthogonalEdgeStyle;rounded=0;orthogonalLoop=1;jettySize=auto;html=1;" parent="1" source="i4qcZhZc8-6NtsrafSyv-70" edge="1">
                    <mxGeometry relative="1" as="geometry">
                        <mxPoint x="115" y="-354" as="targetPoint"/>
                        <mxPoint x="238" y="-391" as="sourcePoint"/>
                        <Array as="points">
                            <mxPoint x="113" y="-391"/>
                            <mxPoint x="113" y="-357"/>
                        </Array>
                    </mxGeometry>
                </mxCell>
                <mxCell id="i4qcZhZc8-6NtsrafSyv-92" style="edgeStyle=orthogonalEdgeStyle;rounded=0;orthogonalLoop=1;jettySize=auto;html=1;" parent="1" source="i4qcZhZc8-6NtsrafSyv-85" edge="1">
                    <mxGeometry relative="1" as="geometry">
                        <mxPoint x="101" y="-178" as="targetPoint"/>
                    </mxGeometry>
                </mxCell>
                <mxCell id="i4qcZhZc8-6NtsrafSyv-85" value="" style="rounded=0;whiteSpace=wrap;html=1;" parent="1" vertex="1">
                    <mxGeometry x="27" y="-350" width="148" height="85" as="geometry"/>
                </mxCell>
                <mxCell id="i4qcZhZc8-6NtsrafSyv-87" value="&lt;font style=&quot;font-size: 16px;&quot;&gt;Created at program initialization&lt;/font&gt;" style="text;html=1;align=center;verticalAlign=middle;whiteSpace=wrap;rounded=0;" parent="1" vertex="1">
                    <mxGeometry x="20" y="-332" width="162" height="30" as="geometry"/>
                </mxCell>
                <mxCell id="i4qcZhZc8-6NtsrafSyv-94" value="&lt;font style=&quot;font-size: 16px;&quot;&gt;User Credit Account&lt;/font&gt;" style="text;html=1;align=center;verticalAlign=middle;whiteSpace=wrap;rounded=0;" parent="1" vertex="1">
                    <mxGeometry x="626" y="-188" width="158" height="30" as="geometry"/>
                </mxCell>
                <mxCell id="i4qcZhZc8-6NtsrafSyv-95" value="&lt;ul&gt;&lt;li&gt;&lt;font style=&quot;font-size: 16px;&quot;&gt;credit token balance&lt;/font&gt;&lt;/li&gt;&lt;li&gt;&lt;span style=&quot;font-size: 16px;&quot;&gt;transfer permission&lt;/span&gt;&lt;/li&gt;&lt;li&gt;&lt;span style=&quot;font-size: 16px;&quot;&gt;user can use this token to pay via solana pay or similar payment gateway&lt;/span&gt;&lt;/li&gt;&lt;/ul&gt;" style="text;strokeColor=none;fillColor=none;html=1;whiteSpace=wrap;verticalAlign=middle;overflow=hidden;" parent="1" vertex="1">
                    <mxGeometry x="591" y="-145" width="217" height="143.5" as="geometry"/>
                </mxCell>
                <mxCell id="i4qcZhZc8-6NtsrafSyv-120" style="edgeStyle=orthogonalEdgeStyle;rounded=0;orthogonalLoop=1;jettySize=auto;html=1;" parent="1" source="i4qcZhZc8-6NtsrafSyv-103" target="i4qcZhZc8-6NtsrafSyv-121" edge="1">
                    <mxGeometry relative="1" as="geometry">
                        <mxPoint x="153" y="631" as="targetPoint"/>
                    </mxGeometry>
                </mxCell>
                <mxCell id="i4qcZhZc8-6NtsrafSyv-128" style="edgeStyle=orthogonalEdgeStyle;rounded=0;orthogonalLoop=1;jettySize=auto;html=1;entryX=0.25;entryY=0;entryDx=0;entryDy=0;" parent="1" edge="1">
                    <mxGeometry relative="1" as="geometry">
                        <mxPoint x="107.75" y="354.5" as="targetPoint"/>
                        <mxPoint x="283" y="293" as="sourcePoint"/>
                    </mxGeometry>
                </mxCell>
                <mxCell id="i4qcZhZc8-6NtsrafSyv-103" value="&lt;br&gt;&lt;div&gt;&lt;font style=&quot;font-size: 18px;&quot;&gt;&lt;br&gt;&lt;/font&gt;&lt;/div&gt;&lt;div&gt;&lt;br&gt;&lt;/div&gt;" style="rounded=1;whiteSpace=wrap;html=1;direction=north;" parent="1" vertex="1">
                    <mxGeometry x="273" y="202" width="244" height="182" as="geometry"/>
                </mxCell>
                <mxCell id="i4qcZhZc8-6NtsrafSyv-104" value="&lt;span style=&quot;font-size: 18px;&quot;&gt;Collateral Manager Program&lt;/span&gt;" style="text;html=1;align=center;verticalAlign=middle;whiteSpace=wrap;rounded=0;" parent="1" vertex="1">
                    <mxGeometry x="266.75" y="226" width="256.5" height="30" as="geometry"/>
                </mxCell>
                <mxCell id="i4qcZhZc8-6NtsrafSyv-105" value="&lt;ul&gt;&lt;li&gt;&lt;span style=&quot;text-align: center;&quot;&gt;&lt;font style=&quot;font-size: 16px;&quot;&gt;Calculate the yield growth&lt;/font&gt;&lt;/span&gt;&lt;/li&gt;&lt;/ul&gt;" style="text;strokeColor=none;fillColor=none;html=1;whiteSpace=wrap;verticalAlign=middle;overflow=hidden;" parent="1" vertex="1">
                    <mxGeometry x="285" y="262" width="212.25" height="80" as="geometry"/>
                </mxCell>
                <mxCell id="i4qcZhZc8-6NtsrafSyv-106" value="" style="ellipse;shape=cloud;whiteSpace=wrap;html=1;" parent="1" vertex="1">
                    <mxGeometry x="2" y="30" width="117" height="80" as="geometry"/>
                </mxCell>
                <mxCell id="i4qcZhZc8-6NtsrafSyv-110" style="edgeStyle=orthogonalEdgeStyle;rounded=0;orthogonalLoop=1;jettySize=auto;html=1;" parent="1" source="i4qcZhZc8-6NtsrafSyv-112" edge="1">
                    <mxGeometry relative="1" as="geometry">
                        <mxPoint x="397" y="195" as="targetPoint"/>
                    </mxGeometry>
                </mxCell>
                <mxCell id="i4qcZhZc8-6NtsrafSyv-107" value="&lt;font style=&quot;font-size: 16px;&quot;&gt;Cron job&lt;/font&gt;" style="text;html=1;align=center;verticalAlign=middle;whiteSpace=wrap;rounded=0;" parent="1" vertex="1">
                    <mxGeometry x="13" y="57" width="95" height="30" as="geometry"/>
                </mxCell>
                <mxCell id="i4qcZhZc8-6NtsrafSyv-137" style="edgeStyle=orthogonalEdgeStyle;rounded=0;orthogonalLoop=1;jettySize=auto;html=1;entryX=0.5;entryY=0;entryDx=0;entryDy=0;" parent="1" source="i4qcZhZc8-6NtsrafSyv-116" target="i4qcZhZc8-6NtsrafSyv-134" edge="1">
                    <mxGeometry relative="1" as="geometry"/>
                </mxCell>
                <mxCell id="i4qcZhZc8-6NtsrafSyv-116" value="" style="rounded=1;whiteSpace=wrap;html=1;" parent="1" vertex="1">
                    <mxGeometry x="487.5" y="628" width="352" height="189" as="geometry"/>
                </mxCell>
                <mxCell id="i4qcZhZc8-6NtsrafSyv-149" style="edgeStyle=orthogonalEdgeStyle;rounded=0;orthogonalLoop=1;jettySize=auto;html=1;" parent="1" source="i4qcZhZc8-6NtsrafSyv-117" edge="1">
                    <mxGeometry relative="1" as="geometry">
                        <mxPoint x="334" y="803" as="targetPoint"/>
                    </mxGeometry>
                </mxCell>
                <mxCell id="i4qcZhZc8-6NtsrafSyv-117" value="&lt;ul&gt;&lt;li&gt;&lt;font style=&quot;font-size: 16px;&quot;&gt;update the loan account pda by &lt;span style=&quot;&quot; data-end=&quot;1214&quot; data-start=&quot;1181&quot;&gt;repaying debt using the yield&lt;/span&gt;.&lt;/font&gt;&lt;/li&gt;&lt;/ul&gt;" style="text;strokeColor=none;fillColor=none;html=1;whiteSpace=wrap;verticalAlign=middle;overflow=hidden;" parent="1" vertex="1">
                    <mxGeometry x="490" y="684" width="332" height="109" as="geometry"/>
                </mxCell>
                <mxCell id="i4qcZhZc8-6NtsrafSyv-118" value="&lt;span style=&quot;font-size: 18px;&quot;&gt;Lending Program&lt;/span&gt;" style="text;html=1;align=center;verticalAlign=middle;whiteSpace=wrap;rounded=0;" parent="1" vertex="1">
                    <mxGeometry x="559" y="642" width="183" height="17" as="geometry"/>
                </mxCell>
                <mxCell id="i4qcZhZc8-6NtsrafSyv-122" style="edgeStyle=orthogonalEdgeStyle;rounded=0;orthogonalLoop=1;jettySize=auto;html=1;" parent="1" source="i4qcZhZc8-6NtsrafSyv-121" edge="1">
                    <mxGeometry relative="1" as="geometry">
                        <mxPoint x="628" y="620" as="targetPoint"/>
                    </mxGeometry>
                </mxCell>
                <mxCell id="i4qcZhZc8-6NtsrafSyv-121" value="" style="rounded=1;whiteSpace=wrap;html=1;" parent="1" vertex="1">
                    <mxGeometry x="699" y="391" width="79" height="46" as="geometry"/>
                </mxCell>
                <mxCell id="i4qcZhZc8-6NtsrafSyv-123" value="&lt;font style=&quot;font-size: 16px;&quot;&gt;CPI&lt;/font&gt;" style="text;html=1;align=center;verticalAlign=middle;whiteSpace=wrap;rounded=0;" parent="1" vertex="1">
                    <mxGeometry x="708.5" y="399" width="60" height="30" as="geometry"/>
                </mxCell>
                <mxCell id="i4qcZhZc8-6NtsrafSyv-131" style="edgeStyle=orthogonalEdgeStyle;rounded=0;orthogonalLoop=1;jettySize=auto;html=1;" parent="1" source="i4qcZhZc8-6NtsrafSyv-126" edge="1">
                    <mxGeometry relative="1" as="geometry">
                        <mxPoint x="114.25" y="657" as="targetPoint"/>
                    </mxGeometry>
                </mxCell>
                <mxCell id="i4qcZhZc8-6NtsrafSyv-126" value="&lt;span style=&quot;font-size: 18px;&quot;&gt;Oracle&amp;nbsp;&lt;/span&gt;" style="shape=hexagon;perimeter=hexagonPerimeter2;whiteSpace=wrap;html=1;fixedSize=1;" parent="1" vertex="1">
                    <mxGeometry x="30.5" y="486" width="167.5" height="80" as="geometry"/>
                </mxCell>
                <mxCell id="i4qcZhZc8-6NtsrafSyv-129" style="edgeStyle=orthogonalEdgeStyle;rounded=0;orthogonalLoop=1;jettySize=auto;html=1;" parent="1" source="i4qcZhZc8-6NtsrafSyv-127" edge="1">
                    <mxGeometry relative="1" as="geometry">
                        <mxPoint x="116.375" y="476" as="targetPoint"/>
                    </mxGeometry>
                </mxCell>
                <mxCell id="i4qcZhZc8-6NtsrafSyv-127" value="&lt;font size=&quot;3&quot;&gt;CPI&lt;/font&gt;" style="rounded=1;whiteSpace=wrap;html=1;" parent="1" vertex="1">
                    <mxGeometry x="83" y="357" width="66.75" height="40" as="geometry"/>
                </mxCell>
                <mxCell id="i4qcZhZc8-6NtsrafSyv-130" value="" style="rounded=1;whiteSpace=wrap;html=1;" parent="1" vertex="1">
                    <mxGeometry x="14.5" y="659" width="215" height="131" as="geometry"/>
                </mxCell>
                <mxCell id="i4qcZhZc8-6NtsrafSyv-133" value="&lt;ul style=&quot;text-align: left;&quot;&gt;&lt;li&gt;&lt;span style=&quot;text-align: center;&quot;&gt;&lt;font style=&quot;font-size: 16px;&quot;&gt;get real time market price of&amp;nbsp; the yield growth&lt;/font&gt;&lt;/span&gt;&lt;/li&gt;&lt;/ul&gt;" style="text;html=1;align=center;verticalAlign=middle;whiteSpace=wrap;rounded=0;" parent="1" vertex="1">
                    <mxGeometry x="6" y="694.5" width="209.5" height="60" as="geometry"/>
                </mxCell>
                <mxCell id="i4qcZhZc8-6NtsrafSyv-134" value="" style="rounded=0;whiteSpace=wrap;html=1;" parent="1" vertex="1">
                    <mxGeometry x="525.5" y="918" width="276" height="157" as="geometry"/>
                </mxCell>
                <mxCell id="i4qcZhZc8-6NtsrafSyv-135" value="&lt;ul&gt;&lt;li&gt;&lt;font style=&quot;font-size: 16px;&quot;&gt;collateral amount&lt;/font&gt;&lt;/li&gt;&lt;li&gt;&lt;font style=&quot;font-size: 16px;&quot;&gt;outstanding debt&lt;/font&gt;&lt;/li&gt;&lt;li&gt;&lt;span style=&quot;font-size: 16px;&quot;&gt;yield tracking info&lt;/span&gt;&lt;/li&gt;&lt;/ul&gt;" style="text;strokeColor=none;fillColor=none;html=1;whiteSpace=wrap;verticalAlign=middle;overflow=hidden;" parent="1" vertex="1">
                    <mxGeometry x="559" y="975" width="214" height="80" as="geometry"/>
                </mxCell>
                <mxCell id="i4qcZhZc8-6NtsrafSyv-136" value="&lt;font size=&quot;3&quot;&gt;Loan Account&amp;nbsp; PDA&lt;/font&gt;" style="text;html=1;align=center;verticalAlign=middle;whiteSpace=wrap;rounded=0;" parent="1" vertex="1">
                    <mxGeometry x="554" y="938" width="224" height="30" as="geometry"/>
                </mxCell>
                <mxCell id="i4qcZhZc8-6NtsrafSyv-160" style="edgeStyle=orthogonalEdgeStyle;rounded=0;orthogonalLoop=1;jettySize=auto;html=1;" parent="1" source="i4qcZhZc8-6NtsrafSyv-138" edge="1">
                    <mxGeometry relative="1" as="geometry">
                        <mxPoint x="138.25" y="1239" as="targetPoint"/>
                    </mxGeometry>
                </mxCell>
                <mxCell id="i4qcZhZc8-6NtsrafSyv-164" style="edgeStyle=orthogonalEdgeStyle;rounded=0;orthogonalLoop=1;jettySize=auto;html=1;" parent="1" edge="1">
                    <mxGeometry relative="1" as="geometry">
                        <mxPoint x="535" y="1315" as="targetPoint"/>
                        <mxPoint x="261" y="999" as="sourcePoint"/>
                        <Array as="points">
                            <mxPoint x="261" y="1000"/>
                            <mxPoint x="368" y="1000"/>
                        </Array>
                    </mxGeometry>
                </mxCell>
                <mxCell id="i4qcZhZc8-6NtsrafSyv-138" value="&lt;br&gt;&lt;div&gt;&lt;font style=&quot;font-size: 18px;&quot;&gt;&lt;br&gt;&lt;/font&gt;&lt;/div&gt;&lt;div&gt;&lt;br&gt;&lt;/div&gt;" style="rounded=1;whiteSpace=wrap;html=1;direction=north;" parent="1" vertex="1">
                    <mxGeometry x="16.25" y="908" width="242.75" height="182" as="geometry"/>
                </mxCell>
                <mxCell id="i4qcZhZc8-6NtsrafSyv-140" value="&lt;font style=&quot;font-size: 18px;&quot;&gt;Credit Token Program&lt;/font&gt;" style="text;html=1;align=center;verticalAlign=middle;whiteSpace=wrap;rounded=0;" parent="1" vertex="1">
                    <mxGeometry x="26" y="914" width="231" height="30" as="geometry"/>
                </mxCell>
                <mxCell id="i4qcZhZc8-6NtsrafSyv-142" value="" style="rounded=1;whiteSpace=wrap;html=1;" parent="1" vertex="1">
                    <mxGeometry x="310" y="806" width="66" height="47" as="geometry"/>
                </mxCell>
                <mxCell id="i4qcZhZc8-6NtsrafSyv-158" style="edgeStyle=orthogonalEdgeStyle;rounded=0;orthogonalLoop=1;jettySize=auto;html=1;" parent="1" source="i4qcZhZc8-6NtsrafSyv-143" edge="1">
                    <mxGeometry relative="1" as="geometry">
                        <mxPoint x="140" y="889" as="targetPoint"/>
                    </mxGeometry>
                </mxCell>
                <mxCell id="i4qcZhZc8-6NtsrafSyv-143" value="&lt;font style=&quot;font-size: 16px;&quot;&gt;CPI&lt;/font&gt;" style="text;html=1;align=center;verticalAlign=middle;whiteSpace=wrap;rounded=0;" parent="1" vertex="1">
                    <mxGeometry x="314.5" y="814.5" width="58" height="30" as="geometry"/>
                </mxCell>
                <mxCell id="i4qcZhZc8-6NtsrafSyv-155" value="" style="shape=ext;double=1;whiteSpace=wrap;html=1;aspect=fixed;" parent="1" vertex="1">
                    <mxGeometry x="30.5" y="1245" width="197" height="197" as="geometry"/>
                </mxCell>
                <mxCell id="i4qcZhZc8-6NtsrafSyv-156" value="&lt;font style=&quot;font-size: 16px;&quot;&gt;User Credit Account&lt;/font&gt;" style="text;html=1;align=center;verticalAlign=middle;whiteSpace=wrap;rounded=0;" parent="1" vertex="1">
                    <mxGeometry x="45.5" y="1263" width="158" height="30" as="geometry"/>
                </mxCell>
                <mxCell id="i4qcZhZc8-6NtsrafSyv-157" value="&lt;ul&gt;&lt;li&gt;&lt;font style=&quot;font-size: 16px;&quot;&gt;burn tokens equivalent to the repaid value&lt;/font&gt;&lt;/li&gt;&lt;/ul&gt;" style="text;strokeColor=none;fillColor=none;html=1;whiteSpace=wrap;verticalAlign=middle;overflow=hidden;" parent="1" vertex="1">
                    <mxGeometry x="13" y="1296" width="217" height="143.5" as="geometry"/>
                </mxCell>
                <mxCell id="i4qcZhZc8-6NtsrafSyv-159" value="&lt;ul&gt;&lt;li&gt;&lt;font style=&quot;font-size: 16px;&quot;&gt;burn credit token from user credit account&lt;/font&gt;&lt;/li&gt;&lt;li&gt;&lt;font style=&quot;font-size: 16px;&quot;&gt;reduces &lt;span data-end=&quot;624&quot; data-start=&quot;608&quot;&gt;total supply&lt;/span&gt;&lt;/font&gt;&lt;/li&gt;&lt;/ul&gt;" style="text;strokeColor=none;fillColor=none;html=1;whiteSpace=wrap;verticalAlign=middle;overflow=hidden;" parent="1" vertex="1">
                    <mxGeometry x="17" y="972.5" width="215" height="85" as="geometry"/>
                </mxCell>
                <mxCell id="i4qcZhZc8-6NtsrafSyv-161" value="" style="rounded=0;whiteSpace=wrap;html=1;" parent="1" vertex="1">
                    <mxGeometry x="540" y="1231" width="258" height="151" as="geometry"/>
                </mxCell>
                <mxCell id="i4qcZhZc8-6NtsrafSyv-162" value="&lt;font style=&quot;font-size: 16px;&quot;&gt;Credit Token Mint PDA&lt;/font&gt;" style="text;html=1;align=center;verticalAlign=middle;whiteSpace=wrap;rounded=0;" parent="1" vertex="1">
                    <mxGeometry x="581" y="1241" width="178" height="30" as="geometry"/>
                </mxCell>
                <mxCell id="i4qcZhZc8-6NtsrafSyv-163" value="&lt;ul&gt;&lt;li&gt;&lt;span style=&quot;font-size: 16px;&quot;&gt;total supply&lt;/span&gt;&lt;/li&gt;&lt;li&gt;&lt;span style=&quot;font-size: 16px;&quot;&gt;mint authority&lt;/span&gt;&lt;/li&gt;&lt;li&gt;&lt;span style=&quot;font-size: 16px;&quot;&gt;burn authority&lt;/span&gt;&lt;/li&gt;&lt;/ul&gt;" style="text;strokeColor=none;fillColor=none;html=1;whiteSpace=wrap;verticalAlign=middle;overflow=hidden;" parent="1" vertex="1">
                    <mxGeometry x="573" y="1291" width="186" height="80" as="geometry"/>
                </mxCell>
                <mxCell id="i4qcZhZc8-6NtsrafSyv-165" value="&lt;font style=&quot;font-size: 14px;&quot;&gt;reduces token supply&lt;/font&gt;" style="ellipse;whiteSpace=wrap;html=1;" parent="1" vertex="1">
                    <mxGeometry x="310" y="1126" width="120" height="80" as="geometry"/>
                </mxCell>
                <mxCell id="i4qcZhZc8-6NtsrafSyv-166" value="&lt;font style=&quot;font-size: 18px;&quot;&gt;Borrowing Flow&lt;/font&gt;" style="text;html=1;align=center;verticalAlign=middle;whiteSpace=wrap;rounded=0;" parent="1" vertex="1">
                    <mxGeometry x="301.5" y="-2230" width="152" height="30" as="geometry"/>
                </mxCell>
                <mxCell id="i4qcZhZc8-6NtsrafSyv-167" value="&lt;font style=&quot;font-size: 18px;&quot;&gt;Repayment Flow&lt;/font&gt;" style="text;html=1;align=center;verticalAlign=middle;whiteSpace=wrap;rounded=0;" parent="1" vertex="1">
                    <mxGeometry x="243" y="-4" width="260" height="30" as="geometry"/>
                </mxCell>
                <mxCell id="i4qcZhZc8-6NtsrafSyv-168" value="" style="edgeStyle=orthogonalEdgeStyle;rounded=0;orthogonalLoop=1;jettySize=auto;html=1;" parent="1" source="i4qcZhZc8-6NtsrafSyv-107" target="i4qcZhZc8-6NtsrafSyv-112" edge="1">
                    <mxGeometry relative="1" as="geometry">
                        <mxPoint x="397" y="195" as="targetPoint"/>
                        <mxPoint x="108" y="72" as="sourcePoint"/>
                    </mxGeometry>
                </mxCell>
                <mxCell id="i4qcZhZc8-6NtsrafSyv-112" value="&lt;font style=&quot;font-size: 16px;&quot;&gt;scheduled cron job will trigger yield harvesting&lt;/font&gt;" style="rounded=1;whiteSpace=wrap;html=1;" parent="1" vertex="1">
                    <mxGeometry x="175" y="48" width="150" height="85" as="geometry"/>
                </mxCell>
                <mxCell id="i4qcZhZc8-6NtsrafSyv-169" value="&lt;font style=&quot;font-size: 18px;&quot;&gt;Withdrawal Flow&lt;/font&gt;" style="text;html=1;align=center;verticalAlign=middle;whiteSpace=wrap;rounded=0;" parent="1" vertex="1">
                    <mxGeometry x="287" y="1494" width="186" height="30" as="geometry"/>
                </mxCell>
                <mxCell id="i4qcZhZc8-6NtsrafSyv-182" style="edgeStyle=orthogonalEdgeStyle;rounded=0;orthogonalLoop=1;jettySize=auto;html=1;" parent="1" source="i4qcZhZc8-6NtsrafSyv-173" edge="1">
                    <mxGeometry relative="1" as="geometry">
                        <mxPoint x="544" y="1666.5" as="targetPoint"/>
                    </mxGeometry>
                </mxCell>
                <mxCell id="i4qcZhZc8-6NtsrafSyv-190" style="edgeStyle=orthogonalEdgeStyle;rounded=0;orthogonalLoop=1;jettySize=auto;html=1;" parent="1" source="i4qcZhZc8-6NtsrafSyv-173" edge="1">
                    <mxGeometry relative="1" as="geometry">
                        <mxPoint x="196.5" y="1912" as="targetPoint"/>
                    </mxGeometry>
                </mxCell>
                <mxCell id="i4qcZhZc8-6NtsrafSyv-173" value="" style="rounded=1;whiteSpace=wrap;html=1;" parent="1" vertex="1">
                    <mxGeometry x="20.5" y="1572" width="352" height="189" as="geometry"/>
                </mxCell>
                <mxCell id="i4qcZhZc8-6NtsrafSyv-174" value="&lt;span style=&quot;font-size: 18px;&quot;&gt;Lending Program&lt;/span&gt;" style="text;html=1;align=center;verticalAlign=middle;whiteSpace=wrap;rounded=0;" parent="1" vertex="1">
                    <mxGeometry x="100.5" y="1584" width="183" height="17" as="geometry"/>
                </mxCell>
                <mxCell id="i4qcZhZc8-6NtsrafSyv-175" value="&lt;br&gt;&lt;div&gt;&lt;font style=&quot;font-size: 18px;&quot;&gt;&lt;br&gt;&lt;/font&gt;&lt;/div&gt;&lt;div&gt;&lt;br&gt;&lt;/div&gt;" style="rounded=1;whiteSpace=wrap;html=1;direction=north;" parent="1" vertex="1">
                    <mxGeometry x="540" y="1974" width="244" height="182" as="geometry"/>
                </mxCell>
                <mxCell id="i4qcZhZc8-6NtsrafSyv-176" value="&lt;span style=&quot;font-size: 18px;&quot;&gt;Collateral Manager Program&lt;/span&gt;" style="text;html=1;align=center;verticalAlign=middle;whiteSpace=wrap;rounded=0;" parent="1" vertex="1">
                    <mxGeometry x="533.75" y="1991" width="256.5" height="30" as="geometry"/>
                </mxCell>
                <mxCell id="i4qcZhZc8-6NtsrafSyv-177" value="&lt;span style=&quot;font-size: 18px;&quot;&gt;&amp;nbsp;checks if user&#39;s loan account pda has outstanding debt zero&lt;/span&gt;" style="text;html=1;align=center;verticalAlign=middle;whiteSpace=wrap;rounded=0;" parent="1" vertex="1">
                    <mxGeometry x="8.5" y="1650" width="358" height="73.5" as="geometry"/>
                </mxCell>
                <mxCell id="i4qcZhZc8-6NtsrafSyv-178" value="" style="rounded=0;whiteSpace=wrap;html=1;" parent="1" vertex="1">
                    <mxGeometry x="549" y="1619" width="276" height="157" as="geometry"/>
                </mxCell>
                <mxCell id="i4qcZhZc8-6NtsrafSyv-179" value="&lt;font size=&quot;3&quot;&gt;Loan Account&amp;nbsp; PDA&lt;/font&gt;" style="text;html=1;align=center;verticalAlign=middle;whiteSpace=wrap;rounded=0;" parent="1" vertex="1">
                    <mxGeometry x="574" y="1624" width="224" height="30" as="geometry"/>
                </mxCell>
                <mxCell id="i4qcZhZc8-6NtsrafSyv-180" value="&lt;ul&gt;&lt;li&gt;&lt;font style=&quot;font-size: 16px;&quot;&gt;collateral amount&lt;/font&gt;&lt;/li&gt;&lt;li&gt;&lt;font style=&quot;font-size: 16px;&quot;&gt;outstanding debt&lt;/font&gt;&lt;/li&gt;&lt;li&gt;&lt;span style=&quot;font-size: 16px;&quot;&gt;yield tracking info&lt;/span&gt;&lt;/li&gt;&lt;/ul&gt;" style="text;strokeColor=none;fillColor=none;html=1;whiteSpace=wrap;verticalAlign=middle;overflow=hidden;" parent="1" vertex="1">
                    <mxGeometry x="587.5" y="1679" width="214" height="93" as="geometry"/>
                </mxCell>
                <mxCell id="i4qcZhZc8-6NtsrafSyv-191" style="edgeStyle=orthogonalEdgeStyle;rounded=0;orthogonalLoop=1;jettySize=auto;html=1;" parent="1" source="i4qcZhZc8-6NtsrafSyv-185" edge="1">
                    <mxGeometry relative="1" as="geometry">
                        <mxPoint x="664" y="1966" as="targetPoint"/>
                    </mxGeometry>
                </mxCell>
                <mxCell id="i4qcZhZc8-6NtsrafSyv-185" value="" style="rounded=1;whiteSpace=wrap;html=1;" parent="1" vertex="1">
                    <mxGeometry x="162.5" y="1915" width="65" height="50" as="geometry"/>
                </mxCell>
                <mxCell id="i4qcZhZc8-6NtsrafSyv-186" value="&lt;font style=&quot;font-size: 16px;&quot;&gt;CPI&lt;/font&gt;" style="text;html=1;align=center;verticalAlign=middle;whiteSpace=wrap;rounded=0;" parent="1" vertex="1">
                    <mxGeometry x="166.5" y="1925" width="60" height="30" as="geometry"/>
                </mxCell>
                <mxCell id="i4qcZhZc8-6NtsrafSyv-187" style="edgeStyle=orthogonalEdgeStyle;rounded=0;orthogonalLoop=1;jettySize=auto;html=1;exitX=0.5;exitY=1;exitDx=0;exitDy=0;" parent="1" source="i4qcZhZc8-6NtsrafSyv-177" target="i4qcZhZc8-6NtsrafSyv-177" edge="1">
                    <mxGeometry relative="1" as="geometry"/>
                </mxCell>
                <mxCell id="i4qcZhZc8-6NtsrafSyv-192" value="&lt;ul&gt;&lt;li&gt;&lt;font style=&quot;font-size: 16px;&quot;&gt;transfer staked token to user&lt;/font&gt;&lt;/li&gt;&lt;li&gt;&lt;font style=&quot;font-size: 16px;&quot;&gt;close account transfer rent&amp;nbsp;&lt;/font&gt;&lt;/li&gt;&lt;/ul&gt;" style="text;strokeColor=none;fillColor=none;html=1;whiteSpace=wrap;verticalAlign=middle;overflow=hidden;" parent="1" vertex="1">
                    <mxGeometry x="519.5" y="2044" width="259.5" height="80" as="geometry"/>
                </mxCell>
            </root>
        </mxGraphModel>
    </diagram>
</mxfile>